<svg width="8" height="8" viewBox="0 0 8 8" fill="none" xmlns="http://www.w3.org/2000/svg">
<path fill-rule="evenodd" clip-rule="evenodd" d="M0.82302 2.323C0.846243 2.29972 0.87383 2.28125 0.904203 2.26865C0.934575 2.25604 0.967136 2.24956 1.00002 2.24956C1.0329 2.24956 1.06546 2.25604 1.09584 2.26865C1.12621 2.28125 1.1538 2.29972 1.17702 2.323L4.00002 5.1465L6.82302 2.323C6.84626 2.29976 6.87386 2.28132 6.90423 2.26874C6.9346 2.25616 6.96715 2.24969 7.00002 2.24969C7.03289 2.24969 7.06544 2.25616 7.09581 2.26874C7.12618 2.28132 7.15378 2.29976 7.17702 2.323C7.20026 2.34625 7.2187 2.37384 7.23128 2.40421C7.24386 2.43458 7.25034 2.46713 7.25034 2.5C7.25034 2.53288 7.24386 2.56543 7.23128 2.5958C7.2187 2.62617 7.20026 2.65376 7.17702 2.677L4.17702 5.677C4.1538 5.70029 4.12621 5.71876 4.09584 5.73136C4.06546 5.74396 4.0329 5.75045 4.00002 5.75045C3.96714 5.75045 3.93458 5.74396 3.9042 5.73136C3.87383 5.71876 3.84624 5.70029 3.82302 5.677L0.82302 2.677C0.799738 2.65378 0.781267 2.62619 0.768663 2.59582C0.75606 2.56545 0.749573 2.53289 0.749573 2.5C0.749573 2.46712 0.75606 2.43456 0.768663 2.40419C0.781267 2.37381 0.799738 2.34623 0.82302 2.323Z" fill="white" stroke="white" stroke-width="0.7"/>
</svg>
